<svg id="Layer_1" data-name="Layer 1" xmlns="http://www.w3.org/2000/svg" viewBox="0 0 30 30"><title>instagram</title><path d="M26,6a2.43,2.43,0,0,0-2-2l-.12,0H6.17l-.32.06A2.44,2.44,0,0,0,4,6.15l0,.13V24.73c0,.12,0,.23.06.35a2.42,2.42,0,0,0,2,1.9l.14,0H23.8l.34-.06A2.44,2.44,0,0,0,26,25c0-.1,0-.21,0-.31V6.3C26,6.2,26,6.1,26,6Zm-5.3-.13h2.08a.91.91,0,0,1,.89.94q0,1.09,0,2.18a.9.9,0,0,1-.85.92H20.68a.89.89,0,0,1-.87-.62A1.09,1.09,0,0,1,19.76,9c0-.72,0-1.44,0-2.16A.91.91,0,0,1,20.65,5.87Zm-5.65,5a4.57,4.57,0,0,1,4.46,4.76,4.56,4.56,0,0,1-4.56,4.56,4.57,4.57,0,0,1-4.36-4.73A4.56,4.56,0,0,1,15,10.84Zm8.62,2.56q0,5.1,0,10.2a.91.91,0,0,1-.88.91H7.25a.91.91,0,0,1-.87-.91q0-5.11,0-10.21v-.06H8.47A7.43,7.43,0,0,0,9,18.94a6.84,6.84,0,0,0,2.66,2.8,6.59,6.59,0,0,0,7.17-.32,7,7,0,0,0,2-2.2,7.25,7.25,0,0,0,.95-2.87,7.5,7.5,0,0,0-.27-3h2.1Z"/></svg>